<svg width="32" height="32" viewBox="0 0 32 32" fill="none" xmlns="http://www.w3.org/2000/svg">
<g clip-path="url(#clip0_0_416)">
<path d="M23.6782 1.0938C17.4036 -3.20713 14.4028 6.56346 14.4028 6.56346C14.4028 6.56346 11.2655 -1.75042 5.19557 2.91702C-0.874361 7.58447 4.50014 13.6231 7.35896 14.2231C7.84362 14.3026 8.12823 14.3668 8.12823 14.3668C8.12823 14.3668 7.83704 14.3234 7.35896 14.2231C4.22994 13.71 -1.47423 16.3359 0.353267 23.41C2.18077 30.4841 11.2655 25.7437 11.2655 25.7437C11.2655 25.7437 12.2203 33.5471 19.0405 31.7239C25.8606 29.9007 23.6782 22.1702 23.6782 22.1702C23.6782 22.1702 30.9757 25.8167 31.9306 18.0133C32.8854 10.2099 23.6782 12.2519 23.6782 12.2519C23.6782 12.2519 29.9527 5.39474 23.6782 1.0938Z" fill="#FD6378"/>
<path d="M14.34 23.14C13.1267 23.14 12.1333 22.9133 11.36 22.46C10.5867 22.0067 10.2 21.2667 10.2 20.24C10.2 20.1333 10.2 20.04 10.2 19.96C10.2133 19.8667 10.2267 19.7933 10.24 19.74C10.2933 19.3667 10.4067 18.9067 10.58 18.36C10.7533 17.8133 10.9533 17.2333 11.18 16.62C11.4067 15.9933 11.6267 15.38 11.84 14.78C12.0533 14.18 12.2333 13.6333 12.38 13.14C12.5267 12.6333 12.6 12.2267 12.6 11.92C12.6 11.5733 12.4867 11.4 12.26 11.4C12.0067 11.4 11.6933 11.5933 11.32 11.98C10.9467 12.3533 10.5533 12.88 10.14 13.56L10.02 13.5C10.02 12.62 10.1933 11.86 10.54 11.22C10.8867 10.58 11.3467 10.0533 11.92 9.64C12.4933 9.21333 13.1333 8.9 13.84 8.7C14.5467 8.5 15.26 8.4 15.98 8.4C16.8733 8.4 17.7133 8.54667 18.5 8.84C19.2867 9.12 19.9267 9.52667 20.42 10.06C20.9267 10.5933 21.18 11.2467 21.18 12.02C21.18 13.4067 20.3333 14.4867 18.64 15.26C19.64 15.4867 20.3733 15.8667 20.84 16.4C21.3067 16.9333 21.54 17.5267 21.54 18.18C21.54 18.7533 21.3667 19.3333 21.02 19.92C20.6867 20.4933 20.2067 21.0267 19.58 21.52C18.9533 22 18.1933 22.3933 17.3 22.7C16.42 22.9933 15.4333 23.14 14.34 23.14ZM15.12 14.66C15.7333 14.6733 16.2667 14.58 16.72 14.38C17.1867 14.1667 17.5467 13.9 17.8 13.58C18.0667 13.2467 18.2 12.9067 18.2 12.56C18.2 12.1067 17.96 11.7067 17.48 11.36C17 11 16.2467 10.82 15.22 10.82C15.2733 11.0733 15.3067 11.3267 15.32 11.58C15.3467 11.8333 15.36 12.08 15.36 12.32C15.36 12.7067 15.3333 13.0933 15.28 13.48C15.24 13.8667 15.1867 14.26 15.12 14.66ZM14.9 20.7C15.4733 20.7 15.98 20.5867 16.42 20.36C16.86 20.12 17.2067 19.82 17.46 19.46C17.7133 19.0867 17.84 18.7067 17.84 18.32C17.84 17.7867 17.5867 17.2933 17.08 16.84C16.5733 16.3867 15.78 16.1067 14.7 16C14.6467 16.4133 14.5333 16.8533 14.36 17.32C14.2 17.7867 14.0467 18.2333 13.9 18.66C13.7533 19.0867 13.68 19.46 13.68 19.78C13.68 20.06 13.7667 20.2867 13.94 20.46C14.1133 20.62 14.4333 20.7 14.9 20.7Z" fill="#F2F2F2"/>
</g>
<defs>
<clipPath id="clip0_0_416">
<rect width="32" height="32" fill="white"/>
</clipPath>
</defs>
</svg>
