<svg width="1006" height="511" viewBox="0 0 1006 511" fill="none" xmlns="http://www.w3.org/2000/svg">
<g clip-path="url(#clip0_23_2935)">
<rect width="1006" height="511" fill="#F0EBEB"/>
<path d="M363.496 80.5734C209.747 46.8529 41.7529 124.831 0 200H1006V124.831C988.316 68.8218 896.813 14.8105 830.638 5.40511C593.383 -28.3154 487.901 107.858 363.496 80.5734Z" fill="#EBD5D5" fill-opacity="0.41"/>
<path d="M655.5 370.5C809.249 419.057 964.247 308.242 1006 199.999H-6.10352e-05V308.243C17.6835 388.896 72.5 495 182 508C414.353 535.584 531.095 331.21 655.5 370.5Z" fill="#EBD5D5" fill-opacity="0.41"/>
<path d="M728.028 399.657C728.028 363.286 765.308 270.885 809.7 252.7C854.092 234.515 921.74 269.376 949.253 352.474C966.421 404.326 897.503 444.137 897.503 444.137C897.503 444.137 819.51 483.211 785.909 470.432C752.309 457.653 727.047 442.417 728.028 399.657Z" fill="#FD6378" fill-opacity="0.1"/>
</g>
<defs>
<clipPath id="clip0_23_2935">
<rect width="1006" height="511" fill="white"/>
</clipPath>
</defs>
</svg>
