<svg width="45" height="45" viewBox="0 0 45 45" fill="none" xmlns="http://www.w3.org/2000/svg">
<path id="Vector 1" d="M33.2974 1.53816C24.4739 -4.51003 20.2539 9.22987 20.2539 9.22987C20.2539 9.22987 15.8421 -2.46153 7.30627 4.10206C-1.22957 10.6657 6.32832 19.1575 10.3485 20.0012C11.0301 20.113 11.4303 20.2034 11.4303 20.2034C11.4303 20.2034 11.0208 20.1423 10.3485 20.0012C5.94836 19.2797 -2.07314 22.9724 0.496782 32.9203C3.0667 42.8683 15.8421 36.2021 15.8421 36.2021C15.8421 36.2021 17.1848 47.1756 26.7757 44.6117C36.3665 42.0478 33.2974 31.1769 33.2974 31.1769C33.2974 31.1769 43.5596 36.3047 44.9023 25.3312C46.2451 14.3577 33.2974 17.2292 33.2974 17.2292C33.2974 17.2292 42.121 7.58635 33.2974 1.53816Z" fill="#FD6378"/>
</svg>
