<svg width="1007" height="304" viewBox="0 0 1007 304" fill="none" xmlns="http://www.w3.org/2000/svg">
<g clip-path="url(#clip0_29_2982)">
<rect width="1007" height="304" fill="#F0EBEB"/>
<path d="M0 50.7888C19.9209 34.1137 81.4002 0.122549 132.474 0.122282C223.612 0.121806 222.616 57.8444 302.797 57.8444C382.979 57.8444 414.852 3.32903 492.045 0.122282C569.239 -3.08447 589.16 57.844 657.887 57.844C726.614 57.844 745.539 0.122282 828.708 0.122651C910.978 0.123017 952.716 50.7888 1007 50.7888V304C971.308 278.346 885.682 226.781 828.708 225.755C757.491 224.473 744.543 286.684 657.887 284.118C571.231 281.553 584.678 225.755 492.045 225.755C399.413 225.755 391.445 284.118 302.797 284.118C214.149 284.118 234.568 225.755 132.474 225.755C50.7982 225.755 10.1264 260.816 0 278.346V50.7888Z" fill="#EEE2E2"/>
</g>
<defs>
<clipPath id="clip0_29_2982">
<rect width="1007" height="304" fill="white"/>
</clipPath>
</defs>
</svg>
